<svg width="200" height="200" viewBox="0 0 200 200" xmlns="http://www.w3.org/2000/svg">
  <!-- Background circle -->
  <circle cx="100" cy="100" r="95" fill="#3b82f6" opacity="0.1"/>
  
  <!-- Main form icon -->
  <rect x="50" y="40" width="100" height="120" rx="8" fill="#3b82f6" opacity="0.2"/>
  <rect x="60" y="60" width="80" height="10" rx="2" fill="#3b82f6"/>
  <rect x="60" y="80" width="60" height="10" rx="2" fill="#3b82f6"/>
  <rect x="60" y="100" width="70" height="10" rx="2" fill="#3b82f6"/>
  <rect x="60" y="120" width="50" height="10" rx="2" fill="#3b82f6"/>
  
  <!-- AI sparkle effect -->
  <g transform="translate(130, 50)">
    <path d="M0,-15 L2,-5 L12,-3 L2,-1 L0,9 L-2,-1 L-12,-3 L-2,-5 Z" fill="#8b5cf6"/>
    <circle cx="0" cy="-3" r="2" fill="#ffffff"/>
  </g>
  
  <!-- Conditional branching arrows -->
  <path d="M 75 140 L 75 155 L 60 165" stroke="#8b5cf6" stroke-width="3" fill="none" stroke-linecap="round"/>
  <path d="M 75 140 L 75 155 L 90 165" stroke="#8b5cf6" stroke-width="3" fill="none" stroke-linecap="round"/>
  
  <!-- Bottom dots -->
  <circle cx="60" cy="170" r="4" fill="#8b5cf6"/>
  <circle cx="90" cy="170" r="4" fill="#8b5cf6"/>
</svg>
